# xmcd CD database file
#
# Track frame offsets:
#	150
#	48275
#	96730
#	114967
#	140128
#	157666
#	167984
#	200953
#	239180
#	271198
#
# Disc length: 4142 seconds
#
# Revision: 0
# Processed by: cddbd v1.5.1PL0 Copyright (c) Steve Scherf et al.
# Submitted via: CDex 1.51
#
DISCID=96102c0a
DTITLE=中原麻衣、大原さやか、植田佳奈 - 「光と水のダフネ」オリジナルドラマCD ネレイスファミリー劇場
DYEAR=2004
DGENRE=Anime
TTITLE0=クイズ・カムチャッカ PART1
TTITLE1=クイズ・カムチャッカ PART2
TTITLE2=ネレイス・テレビショッピング PART1
TTITLE3=ネレイス・テレビショッピング PART2
TTITLE4=ネレイス・テレビショッピング PART3
TTITLE5=ネレイス・テレビショッピング PART4
TTITLE6=ゴースト カムチャッカの幻 PART1
TTITLE7=ゴースト カムチャッカの幻 PART2
TTITLE8=ゴースト カムチャッカの幻 PART3
TTITLE9=おもいっきりカムチャッカ
EXTD=YEAR: 2004
EXTT0=
EXTT1=
EXTT2=
EXTT3=
EXTT4=
EXTT5=
EXTT6=
EXTT7=
EXTT8=
EXTT9=
PLAYORDER=
